<svg width="417" height="47" viewBox="0 0 417 47" fill="none" xmlns="http://www.w3.org/2000/svg">
<path d="M31.949 8.88088L21.2715 1.98738C19.3816 0.767225 16.9679 0.706756 15.0193 1.83075L1.20712 9.79767C1.156 9.82715 1.10918 9.86352 1.06796 9.90575C0.669697 10.3138 0.95882 11 1.52902 11H408.524C408.152 11 407.783 10.9218 407.443 10.7705L386.459 1.4432C384.457 0.553236 382.129 0.825398 380.386 2.15317L371.95 8.58004C370.026 10.0459 367.41 10.213 365.315 9.00389L353.069 1.93638C351.027 0.757627 348.483 0.884562 346.568 2.26081L337.786 8.5727C335.755 10.0327 333.03 10.0791 330.951 8.68911L321.311 2.24765C319.279 0.889175 316.625 0.900059 314.603 2.27516L305.092 8.74444C303.085 10.1097 300.453 10.131 298.424 8.79849L288.239 2.10952C286.281 0.823729 283.754 0.794794 281.767 2.03541L270.589 9.01554C268.645 10.2299 266.178 10.2299 264.233 9.01554L253.176 2.11069C251.128 0.831752 248.512 0.905176 246.539 2.29701L237.539 8.64549C235.525 10.0662 232.847 10.1107 230.787 8.7577L220.899 2.26365C218.823 0.900049 216.121 0.956886 214.104 2.4066L205.467 8.6135C203.464 10.0532 200.784 10.1201 198.711 8.78204L188.42 2.13773C186.41 0.840041 183.821 0.860527 181.832 2.18986L171.797 8.89603C169.873 10.1814 167.382 10.2465 165.394 9.06332L153.544 2.01055C151.493 0.789552 148.913 0.900961 146.974 2.29425L138.209 8.5934C136.192 10.0431 133.49 10.1 131.414 8.73635L121.434 2.18202C119.42 0.859306 116.81 0.869752 114.807 2.20855L105.213 8.61969C103.082 10.0437 100.282 9.95698 98.2431 8.40385L90.484 2.49273C88.512 0.990475 85.8193 0.855583 83.7071 2.15325L72.5004 9.03834C70.5467 10.2387 68.0796 10.2205 66.1438 8.99152L55.2516 2.07658C53.2605 0.812515 50.7135 0.83219 48.7421 2.12686L38.497 8.85528C36.5118 10.1591 33.9443 10.1691 31.949 8.88088Z" fill="#EE4677" fill-opacity="0.2"/>
<path d="M0 11H410V39C410 43.4183 406.418 47 402 47H7.99999C3.58171 47 0 43.4183 0 39V11Z" fill="#EE4677" fill-opacity="0.2"/>
</svg>
