<svg width="480" height="730" viewBox="0 0 480 730" fill="none" xmlns="http://www.w3.org/2000/svg">
<path d="M-61 1777C933.113 1777 1739 971.113 1739 -23C1739 -1017.11 933.113 -1823 -61 -1823C-1055.11 -1823 -1861 -1017.11 -1861 -23C-1861 971.113 -1055.11 1777 -61 1777Z" fill="black" stroke="black" stroke-opacity="0.05" stroke-width="66.7"/>
<path d="M-61 1677C877.884 1677 1639 915.884 1639 -23C1639 -961.884 877.884 -1723 -61 -1723C-999.884 -1723 -1761 -961.884 -1761 -23C-1761 915.884 -999.884 1677 -61 1677Z" fill="#500000" stroke="black" stroke-opacity="0.05" stroke-width="66.7"/>
<path d="M-61 1577C822.656 1577 1539 860.656 1539 -23C1539 -906.656 822.656 -1623 -61 -1623C-944.656 -1623 -1661 -906.656 -1661 -23C-1661 860.656 -944.656 1577 -61 1577Z" fill="#580003" stroke="black" stroke-opacity="0.05" stroke-width="66.7"/>
<path d="M-61 1477C767.427 1477 1439 805.427 1439 -23C1439 -851.427 767.427 -1523 -61 -1523C-889.427 -1523 -1561 -851.427 -1561 -23C-1561 805.427 -889.427 1477 -61 1477Z" fill="#61000F" stroke="black" stroke-opacity="0.05" stroke-width="66.7"/>
<path d="M-61 1377C712.199 1377 1339 750.199 1339 -23C1339 -796.199 712.199 -1423 -61 -1423C-834.199 -1423 -1461 -796.199 -1461 -23C-1461 750.199 -834.199 1377 -61 1377Z" fill="#6B0017" stroke="black" stroke-opacity="0.05" stroke-width="66.7"/>
<path d="M-61 1277C656.97 1277 1239 694.97 1239 -23C1239 -740.97 656.97 -1323 -61 -1323C-778.97 -1323 -1361 -740.97 -1361 -23C-1361 694.97 -778.97 1277 -61 1277Z" fill="#75001E" stroke="black" stroke-opacity="0.05" stroke-width="66.7"/>
<path d="M-61 1177C601.742 1177 1139 639.742 1139 -23C1139 -685.742 601.742 -1223 -61 -1223C-723.742 -1223 -1261 -685.742 -1261 -23C-1261 639.742 -723.742 1177 -61 1177Z" fill="#7F0024" stroke="black" stroke-opacity="0.05" stroke-width="66.7"/>
<path d="M-61 1077C546.513 1077 1039 584.513 1039 -23C1039 -630.513 546.513 -1123 -61 -1123C-668.513 -1123 -1161 -630.513 -1161 -23C-1161 584.513 -668.513 1077 -61 1077Z" fill="#89002B" stroke="black" stroke-opacity="0.05" stroke-width="66.7"/>
<path d="M-61 977C491.285 977 939 529.285 939 -23C939 -575.285 491.285 -1023 -61 -1023C-613.285 -1023 -1061 -575.285 -1061 -23C-1061 529.285 -613.285 977 -61 977Z" fill="#930032" stroke="black" stroke-opacity="0.05" stroke-width="66.7"/>
<path d="M-61 877C436.056 877 839 474.056 839 -23C839 -520.056 436.056 -923 -61 -923C-558.056 -923 -961 -520.056 -961 -23C-961 474.056 -558.056 877 -61 877Z" fill="#9D0039" stroke="black" stroke-opacity="0.05" stroke-width="66.7"/>
<path d="M-61 777C380.828 777 739 418.828 739 -23C739 -464.828 380.828 -823 -61 -823C-502.828 -823 -861 -464.828 -861 -23C-861 418.828 -502.828 777 -61 777Z" fill="#A70040" stroke="black" stroke-opacity="0.05" stroke-width="66.7"/>
<path d="M-61 677C325.599 677 639 363.599 639 -23C639 -409.599 325.599 -723 -61 -723C-447.599 -723 -761 -409.599 -761 -23C-761 363.599 -447.599 677 -61 677Z" fill="#B10048" stroke="black" stroke-opacity="0.05" stroke-width="66.7"/>
<path d="M-61 577C270.371 577 539 308.371 539 -23C539 -354.371 270.371 -623 -61 -623C-392.371 -623 -661 -354.371 -661 -23C-661 308.371 -392.371 577 -61 577Z" fill="#BB004F" stroke="black" stroke-opacity="0.05" stroke-width="66.7"/>
<path d="M-61 477C215.142 477 439 253.142 439 -23C439 -299.142 215.142 -523 -61 -523C-337.142 -523 -561 -299.142 -561 -23C-561 253.142 -337.142 477 -61 477Z" fill="#C51357" stroke="black" stroke-opacity="0.05" stroke-width="66.7"/>
<path d="M-61 377C159.914 377 339 197.914 339 -23C339 -243.914 159.914 -423 -61 -423C-281.914 -423 -461 -243.914 -461 -23C-461 197.914 -281.914 377 -61 377Z" fill="#CF235F" stroke="black" stroke-opacity="0.05" stroke-width="66.7"/>
<path d="M-61 277C104.685 277 239 142.685 239 -23C239 -188.685 104.685 -323 -61 -323C-226.685 -323 -361 -188.685 -361 -23C-361 142.685 -226.685 277 -61 277Z" fill="#D93067" stroke="black" stroke-opacity="0.05" stroke-width="66.7"/>
<path d="M-61 177C49.4569 177 139 87.4569 139 -23C139 -133.457 49.4569 -223 -61 -223C-171.457 -223 -261 -133.457 -261 -23C-261 87.4569 -171.457 177 -61 177Z" fill="#E43B6F" stroke="black" stroke-opacity="0.05" stroke-width="66.7"/>
<path d="M-61 77C-5.77153 77 39 32.2285 39 -23C39 -78.2285 -5.77153 -123 -61 -123C-116.228 -123 -161 -78.2285 -161 -23C-161 32.2285 -116.228 77 -61 77Z" fill="#EE4677" stroke="black" stroke-opacity="0.05" stroke-width="66.7"/>
</svg>
