<svg width="24" height="24" viewBox="0 0 24 24" fill="none" xmlns="http://www.w3.org/2000/svg">
<g clip-path="url(#clip0_1482_3969)">
<path d="M23.78 15.09C23.6604 14.8557 23.4958 14.6473 23.2955 14.4767C23.0953 14.3061 22.8633 14.1767 22.613 14.0959C22.3627 14.015 22.0988 13.9844 21.8366 14.0057C21.5744 14.027 21.319 14.0998 21.085 14.22L15.5 17.075C15.515 16.6832 15.4144 16.2956 15.2108 15.9604C15.0072 15.6253 14.7096 15.3574 14.355 15.19C7.085 11.775 8.265 11.9 4 12.435V12C4 11.8674 3.94732 11.7402 3.85355 11.6464C3.75979 11.5527 3.63261 11.5 3.5 11.5H0.5C0.367392 11.5 0.240215 11.5527 0.146447 11.6464C0.0526784 11.7402 0 11.8674 0 12L0 20.5C0 20.6326 0.0526784 20.7598 0.146447 20.8536C0.240215 20.9473 0.367392 21 0.5 21H3.5C3.63261 21 3.75979 20.9473 3.85355 20.8536C3.94732 20.7598 4 20.6326 4 20.5V20C4.825 20 5.28 19.945 5.885 20.225C13.385 23.625 11.445 23.645 22.915 17.78C23.386 17.5376 23.7417 17.1182 23.9038 16.6139C24.066 16.1096 24.0215 15.5615 23.78 15.09ZM3 20H1V12.5H3V20ZM22.46 16.89C13.71 21.36 13.78 21.5 12.36 21.5C11.6284 21.5359 10.8987 21.3989 10.23 21.1C5.17 18.805 6 19 4 19V13.44C8.105 12.94 6.705 12.7 13.925 16.09C14.0447 16.1462 14.152 16.2257 14.2407 16.3237C14.3295 16.4216 14.3979 16.5363 14.4421 16.6609C14.4863 16.7855 14.5053 16.9176 14.4981 17.0497C14.4909 17.1817 14.4575 17.311 14.4 17.43C14.346 17.55 14.2688 17.6581 14.1729 17.7482C14.0771 17.8382 13.9643 17.9085 13.8413 17.955C13.7182 18.0014 13.5871 18.0231 13.4556 18.0188C13.3242 18.0145 13.1948 17.9844 13.075 17.93L9.13 16.05C9.01232 16.0038 8.88151 16.0039 8.76389 16.0502C8.64627 16.0966 8.55057 16.1858 8.49607 16.2998C8.44157 16.4139 8.4323 16.5444 8.47014 16.665C8.50798 16.7857 8.59011 16.8875 8.7 16.95L12.645 18.805C12.9566 18.9557 13.3026 19.0213 13.6477 18.9949C13.9929 18.9686 14.3249 18.8513 14.61 18.655L21.54 15.11C21.776 14.988 22.0509 14.9648 22.3041 15.0454C22.5572 15.126 22.768 15.304 22.89 15.54C23.012 15.776 23.0352 16.0509 22.9546 16.3041C22.874 16.5572 22.696 16.768 22.46 16.89ZM7.5 10.5H22.5C22.6326 10.5 22.7598 10.4473 22.8536 10.3536C22.9473 10.2598 23 10.1326 23 10V2C23 1.86739 22.9473 1.74021 22.8536 1.64645C22.7598 1.55268 22.6326 1.5 22.5 1.5H7.5C7.36739 1.5 7.24022 1.55268 7.14645 1.64645C7.05268 1.74021 7 1.86739 7 2V10C7 10.1326 7.05268 10.2598 7.14645 10.3536C7.24022 10.4473 7.36739 10.5 7.5 10.5ZM9.95 2.5H20.05C20.148 2.98045 20.3851 3.42147 20.7318 3.76819C21.0785 4.11491 21.5196 4.35202 22 4.45V7.55C21.5196 7.64798 21.0785 7.88509 20.7318 8.23181C20.3851 8.57853 20.148 9.01955 20.05 9.5H9.95C9.85202 9.01955 9.61491 8.57853 9.26819 8.23181C8.92147 7.88509 8.48045 7.64798 8 7.55V4.45C8.48045 4.35202 8.92147 4.11491 9.26819 3.76819C9.61491 3.42147 9.85202 2.98045 9.95 2.5ZM8 8.59C8.2097 8.66466 8.40015 8.78505 8.55755 8.94245C8.71495 9.09985 8.83534 9.2903 8.91 9.5H8V8.59ZM21.09 9.5C21.1647 9.2903 21.2851 9.09985 21.4425 8.94245C21.5998 8.78505 21.7903 8.66466 22 8.59V9.5H21.09ZM22 3.41C21.7903 3.33534 21.5998 3.21495 21.4425 3.05755C21.2851 2.90015 21.1647 2.7097 21.09 2.5H22V3.41ZM8.91 2.5C8.83534 2.7097 8.71495 2.90015 8.55755 3.05755C8.40015 3.21495 8.2097 3.33534 8 3.41V2.5H8.91Z" fill="black" stroke="black" stroke-width="0.5"/>
<path d="M10.1379 5.65213C10.1403 5.64973 10.1426 5.64735 10.145 5.645C10.1787 5.61152 10.2172 5.5829 10.2594 5.56013C10.2887 5.54429 10.3194 5.53148 10.351 5.52182C10.3518 5.52158 10.3525 5.52135 10.3533 5.52112C10.3988 5.50745 10.4463 5.5003 10.4942 5.50002C10.5283 5.49982 10.5622 5.50312 10.5953 5.50976C10.5954 5.50977 10.5954 5.50977 10.5954 5.50978C10.6587 5.52247 10.7192 5.54734 10.7735 5.58335C10.7747 5.58414 10.7758 5.58493 10.777 5.58572C10.7899 5.59442 10.8024 5.60373 10.8144 5.61363C10.8776 5.66552 10.9273 5.73229 10.9588 5.80828C10.9898 5.8828 11.0021 5.96344 10.9952 6.04329C10.9951 6.04485 10.9949 6.04642 10.9948 6.04798C10.9931 6.06484 10.9907 6.08165 10.9873 6.09836C10.9751 6.15922 10.9517 6.21695 10.9187 6.26875C10.9171 6.27132 10.9154 6.27387 10.9137 6.27641C10.895 6.3046 10.8734 6.33096 10.8492 6.35502C10.8164 6.3875 10.7794 6.41518 10.7394 6.43737C10.7379 6.43822 10.7363 6.43906 10.7348 6.43989C10.705 6.45599 10.6735 6.46909 10.6408 6.4789C10.5966 6.49216 10.551 6.4992 10.5052 6.49994C10.5035 6.49997 10.5017 6.49999 10.5 6.5C10.4661 6.5002 10.4322 6.49695 10.3987 6.49024C10.3384 6.47814 10.281 6.45506 10.2294 6.42231C10.2265 6.42046 10.2236 6.41858 10.2207 6.41667C10.2065 6.40725 10.1928 6.39714 10.1797 6.38639C10.1163 6.33433 10.0667 6.26749 10.0353 6.19174C10.0274 6.17281 10.0208 6.15346 10.0153 6.13382C9.99894 6.07488 9.99348 6.01327 9.99938 5.95204L10.4971 6.00001L9.99938 5.95204C10.001 5.93509 10.0035 5.91827 10.0068 5.90166C10.012 5.87589 10.0192 5.8506 10.0283 5.82602C10.0416 5.79013 10.0591 5.75575 10.0804 5.72361C10.0974 5.69798 10.1167 5.67407 10.1379 5.65213ZM19.2594 5.56013C19.2887 5.54429 19.3194 5.53148 19.351 5.52182C19.3518 5.52158 19.3525 5.52135 19.3533 5.52112C19.3988 5.50745 19.4463 5.5003 19.4942 5.50002C19.5283 5.49982 19.5622 5.50312 19.5953 5.50976C19.5954 5.50977 19.5954 5.50977 19.5954 5.50978C19.6587 5.52247 19.7192 5.54734 19.7735 5.58335C19.7876 5.59272 19.8013 5.60282 19.8144 5.61363C19.8728 5.6616 19.9197 5.7223 19.9514 5.79124C19.954 5.79687 19.9565 5.80254 19.9588 5.80828C19.9898 5.8828 20.0021 5.96344 19.9952 6.04329C19.9951 6.04485 19.9949 6.04642 19.9948 6.04798C19.9931 6.06493 19.9906 6.08175 19.9873 6.09836C19.9751 6.15922 19.9517 6.21694 19.9187 6.26875C19.9171 6.27132 19.9154 6.27387 19.9137 6.27641C19.9137 6.27643 19.9137 6.27645 19.9137 6.27648C19.895 6.30464 19.8734 6.33098 19.8492 6.35502C19.8164 6.3875 19.7794 6.41518 19.7394 6.43737C19.7379 6.43822 19.7363 6.43906 19.7348 6.43989C19.705 6.45599 19.6735 6.46909 19.6408 6.4789C19.5966 6.49216 19.551 6.4992 19.5052 6.49994C19.5035 6.49997 19.5017 6.49999 19.5 6.5C19.4661 6.5002 19.4322 6.49695 19.3987 6.49024C19.3384 6.47814 19.281 6.45505 19.2294 6.42231C19.2264 6.42046 19.2236 6.41858 19.2207 6.41667C19.2077 6.40807 19.1952 6.3989 19.1832 6.3892C19.182 6.38827 19.1809 6.38733 19.1797 6.38639C19.1163 6.33433 19.0667 6.26749 19.0353 6.19175C19.0038 6.11599 18.9915 6.03367 18.9994 5.95204C19.001 5.93518 19.0035 5.91837 19.0068 5.90166C19.0196 5.83826 19.0445 5.77777 19.0804 5.72361C19.0974 5.69798 19.1167 5.67407 19.1379 5.65213C19.1403 5.64973 19.1426 5.64735 19.145 5.645C19.145 5.645 19.145 5.645 19.145 5.64499C19.1787 5.61151 19.2172 5.5829 19.2594 5.56013Z" fill="black" stroke="black" stroke-width="2"/>
</g>
<defs>
<clipPath id="clip0_1482_3969">
<rect width="24" height="24" fill="white"/>
</clipPath>
</defs>
</svg>
