<svg width="21" height="21" viewBox="0 0 21 21" fill="none" xmlns="http://www.w3.org/2000/svg">
<g clip-path="url(#clip0_1482_3966)">
<path d="M3.39267 17.5307C-0.495475 13.6415 -0.495475 7.31425 3.39267 3.42295C7.28292 -0.465202 13.6102 -0.465202 17.5005 3.42295C21.3897 7.3132 21.3897 13.6405 17.5005 17.5307C13.6113 21.421 7.28292 21.4199 3.39267 17.5307Z" fill="#FFD740"/>
<path d="M10.5 1.05C15.7111 1.05 19.95 5.28885 19.95 10.5C19.95 15.7111 15.7111 19.95 10.5 19.95C5.28885 19.95 1.05 15.7111 1.05 10.5C1.05 5.28885 5.28885 1.05 10.5 1.05ZM10.5 0C4.70085 0 0 4.7019 0 10.5C0 16.2981 4.70085 21 10.5 21C16.2991 21 21 16.2981 21 10.5C21 4.7019 16.2991 0 10.5 0Z" fill="#FDD835"/>
<path d="M2.29773 16.0921C0.653431 12.2638 1.37793 7.66371 4.50378 4.53576C7.79343 1.24716 12.7148 0.612961 16.6502 2.60376C16.6502 2.49141 16.6523 2.38011 16.6586 2.26881C12.614 -0.207089 7.26213 0.292711 3.76143 3.79341C0.418232 7.13661 -0.197069 12.1724 1.91133 16.1414C2.03943 16.1215 2.16753 16.1026 2.29773 16.0921Z" fill="white"/>
<path d="M10.5 18.376C6.1572 18.376 2.625 14.8438 2.625 10.501C2.625 6.15818 6.1572 2.62598 10.5 2.62598C14.8428 2.62598 18.375 6.15818 18.375 10.501C18.375 14.8438 14.8428 18.376 10.5 18.376Z" fill="#FFCB00"/>
<path d="M10.4996 3.15059C14.5516 3.15059 17.8496 6.44864 17.8496 10.5006C17.8496 14.5525 14.5516 17.8506 10.4996 17.8506C6.44766 17.8506 3.14961 14.5525 3.14961 10.5006C3.14961 6.44864 6.44766 3.15059 10.4996 3.15059ZM10.4996 2.10059C5.86071 2.10059 2.09961 5.86379 2.09961 10.5006C2.09961 15.1374 5.86071 18.9006 10.4996 18.9006C15.1385 18.9006 18.8996 15.1374 18.8996 10.5006C18.8996 5.86379 15.1385 2.10059 10.4996 2.10059Z" fill="#FFC400"/>
<path d="M14.384 6.64391C14.5429 6.64391 14.6717 6.5059 14.6717 6.33568V5.30823C14.6717 5.13801 14.5429 5 14.384 5H7.28769C7.12881 5 7 5.13801 7 5.30823V6.45764C7 6.62786 7.12881 6.76587 7.28769 6.76587H9.3322C9.98688 6.76587 10.5304 7.32989 10.8351 7.7741H7.18194C7.02307 7.7741 7 7.75372 7 7.92394V8.80155C7 8.97177 7.12881 9.10978 7.28769 9.10978H10.8351C10.686 10.0367 10.3035 10.6158 9.30151 10.6158H7.28769C7.12881 10.6158 7 10.7538 7 10.924V12.2857C7 12.3717 7.03356 12.4539 7.09256 12.5122L11.0495 16.4257C11.1027 16.4782 11.1723 16.5074 11.2447 16.5074H13.224C13.4859 16.5074 13.6116 16.163 13.4191 15.9727L9.80187 12.3952C11.6359 12.3351 12.9459 11.0237 13.1179 9.10978H14.384C14.5429 9.10978 14.6717 8.97177 14.6717 8.80155V8.47119C14.6717 8.30097 14.7486 7.7741 14.6452 7.7741H13.1179C13.0343 7.47766 12.7785 6.89445 12.6353 6.64391H14.384Z" fill="#FF8A00"/>
<path d="M10.5 1.05C15.7111 1.05 19.95 5.28885 19.95 10.5C19.95 15.7111 15.7111 19.95 10.5 19.95C5.28885 19.95 1.05 15.7111 1.05 10.5C1.05 5.28885 5.28885 1.05 10.5 1.05ZM10.5 0C4.70085 0 0 4.7019 0 10.5C0 16.2981 4.70085 21 10.5 21C16.2991 21 21 16.2981 21 10.5C21 4.7019 16.2991 0 10.5 0Z" fill="#FFC400"/>
</g>
<defs>
<clipPath id="clip0_1482_3966">
<rect width="21" height="21" fill="white" transform="matrix(1 0 0 -1 0 21)"/>
</clipPath>
</defs>
</svg>
