<svg width="304" height="15" viewBox="0 0 304 15" fill="none" xmlns="http://www.w3.org/2000/svg">
<path d="M141.607 6.56153C144.907 3.19664 148.486 2.302 152.965 3.71467C156.909 4.95979 160.729 6.76597 164.56 8.31699C167.593 9.54519 170.586 10.9686 173.894 9.95101C176.482 9.15475 178.178 7.33473 179.452 5.06124C179.569 4.85218 180.519 2.71243 179.733 3.65472C174.114 10.3937 165.737 4.96594 159.271 2.40653C156.315 1.23674 153.234 -0.240491 149.969 0.0331269C146.733 0.30367 144.454 2.33428 142.388 4.62468C142.074 4.97208 141.362 6.81055 141.607 6.55999V6.56153Z" fill="#DFDFDF"/>
<path d="M123.064 10.2761C126.364 6.91117 129.943 6.01807 134.422 7.4292C138.366 8.67431 142.186 10.4805 146.017 12.0315C149.05 13.2597 152.043 14.6847 155.352 13.6655C157.939 12.8693 159.635 11.0493 160.909 8.77577C161.026 8.56825 161.976 6.42849 161.19 7.37078C155.571 14.1098 147.194 8.682 140.728 6.12259C137.772 4.95126 134.691 3.47557 131.426 3.74765C128.19 4.01819 125.911 6.05035 123.845 8.33921C123.531 8.68815 122.819 10.5266 123.064 10.2761Z" fill="#DFDFDF"/>
<path d="M189.217 7.00705C188.12 7.60962 187.267 8.45507 186.659 9.5434C186.384 8.99308 186.028 8.50119 185.59 8.0677C185.153 7.63268 184.656 7.28067 184.102 7.00705C184.647 6.72267 185.138 6.36297 185.574 5.93102C186.009 5.49908 186.372 5.01179 186.659 4.4707C187.288 5.53904 188.141 6.38295 189.217 7.00705Z" fill="#DFDFDF"/>
<mask id="mask0_1482_5546" style="mask-type:luminance" maskUnits="userSpaceOnUse" x="191" y="5" width="113" height="4">
<path d="M191.16 5.28516H303.697V8.82682H191.16V5.28516Z" fill="white"/>
</mask>
<g mask="url(#mask0_1482_5546)">
<path d="M191.416 7.03494C191.416 6.87507 200.258 6.96884 212.734 6.25559C217.141 6.00349 220.802 5.72065 223.362 5.50391C232.196 5.79904 245.552 6.19564 261.873 6.47848C285.659 6.89044 303.698 6.85048 303.698 6.97191C303.698 7.09181 285.668 7.0457 261.873 7.48072C245.58 7.77739 232.243 8.19858 223.425 8.51063C220.85 8.31233 217.167 8.05101 212.734 7.81429C200.244 7.14869 191.416 7.1948 191.416 7.03494Z" fill="#DFDFDF"/>
</g>
<path d="M114.48 7.00705C115.578 7.60962 116.431 8.45507 117.038 9.5434C117.313 8.99308 117.67 8.50119 118.108 8.0677C118.545 7.63268 119.041 7.28067 119.596 7.00705C119.051 6.72267 118.56 6.36297 118.124 5.93102C117.689 5.49908 117.326 5.01179 117.038 4.4707C116.41 5.53904 115.556 6.38295 114.48 7.00705Z" fill="#DFDFDF"/>
<mask id="mask1_1482_5546" style="mask-type:luminance" maskUnits="userSpaceOnUse" x="0" y="5" width="113" height="4">
<path d="M0 5.28516H112.457V8.82682H0V5.28516Z" fill="white"/>
</mask>
<g mask="url(#mask1_1482_5546)">
<path d="M112.283 7.03494C112.283 6.87507 103.441 6.96884 90.9657 6.25559C86.5586 6.00349 82.897 5.72065 80.3376 5.50391C71.5034 5.79904 58.1469 6.19564 41.8266 6.47848C18.0403 6.89044 0 6.85048 0 6.97191C0 7.09181 18.0311 7.0457 41.8266 7.48072C58.1192 7.77739 71.4558 8.19858 80.2746 8.51063C82.8494 8.31233 86.5324 8.05101 90.9641 7.81429C103.455 7.14869 112.283 7.1948 112.283 7.03494Z" fill="#DFDFDF"/>
</g>
</svg>
