<svg width="648" height="504" viewBox="0 0 648 504" fill="none" xmlns="http://www.w3.org/2000/svg">
<g id="No Chat History">
<path id="Fill 1" fill-rule="evenodd" clip-rule="evenodd" d="M350.691 0C291.71 0 237.5 20.4452 194.695 54.6518H125.514C116.526 54.6518 109.172 62.0298 109.172 71.0473C109.172 80.0649 116.526 87.4429 125.514 87.4429H160.722H171.039C180.027 87.4429 187.381 94.8209 187.381 103.838C187.381 108.342 185.54 112.452 182.577 115.414C179.624 118.387 175.528 120.234 171.039 120.234H149.028H136.874H77.5782C68.5902 120.234 61.2363 127.612 61.2363 136.629C61.2363 145.647 68.5902 153.025 77.5782 153.025H120.028C107.214 183.239 100.116 216.483 100.116 251.398C100.116 264.067 101.053 276.516 102.85 288.682C103.602 293.764 104.506 298.803 105.563 303.787C136.395 299.055 169.1 295.251 203.244 292.475L205.815 294.825L208.234 292.081C249.252 288.878 292.307 287.173 336.713 287.173C431.06 287.173 519.35 294.868 594.838 308.247C597.747 295.59 599.708 282.572 600.634 269.258C601.059 263.356 601.266 257.399 601.266 251.398C601.266 112.55 489.085 0 350.691 0Z" fill="#EE4677" fill-opacity="0.3"/>
<path id="Fill 3" fill-rule="evenodd" clip-rule="evenodd" d="M27.9574 119.476H18.0538C8.94922 119.476 1.5 127.003 1.5 136.202C1.5 145.402 8.94922 152.929 18.0538 152.929H27.9574C37.062 152.929 44.5112 145.402 44.5112 136.202C44.5112 127.003 37.062 119.476 27.9574 119.476Z" fill="#EE4677" fill-opacity="0.3"/>
<g id="Group 7">
<mask id="mask0_1762_1214" style="mask-type:luminance" maskUnits="userSpaceOnUse" x="105" y="287" width="542" height="215">
<path id="Clip 6" fill-rule="evenodd" clip-rule="evenodd" d="M646.499 287.531V501.794H375.861H105.223V287.531H646.499Z" fill="white"/>
</mask>
<g mask="url(#mask0_1762_1214)">
<path id="Fill 5" fill-rule="evenodd" clip-rule="evenodd" d="M646.499 370.371C646.499 379.332 639.147 386.663 630.161 386.663H525.804C521.317 386.663 517.222 388.499 514.271 391.453C511.308 394.397 509.466 398.481 509.466 402.956C509.466 411.916 516.818 419.248 525.804 419.248H545.193C549.679 419.248 553.776 421.083 556.727 424.038C559.69 426.981 561.531 431.065 561.531 435.54C561.531 444.5 554.179 451.832 545.193 451.832H500.612C458.731 483.2 406.691 501.794 350.292 501.794C229.838 501.794 129.24 417.021 105.223 304.041C136.047 299.338 168.745 295.558 202.88 292.799L205.45 295.134L207.869 292.408C248.876 289.226 291.922 287.531 336.318 287.531C430.641 287.531 518.909 295.178 594.38 308.472C590.71 324.308 585.526 339.557 578.99 354.079H630.161C634.659 354.079 638.733 355.915 641.695 358.869C644.658 361.812 646.499 365.896 646.499 370.371Z" fill="#EE4677" fill-opacity="0.3"/>
</g>
</g>
<path id="Fill 8" fill-rule="evenodd" clip-rule="evenodd" d="M598.88 268.515C597.955 282.082 595.997 295.349 593.092 308.247C517.703 294.613 429.531 286.773 335.309 286.773C290.962 286.773 247.964 288.509 207 291.773L235.408 258.858L279.6 287.696L339.422 286.778L391.382 287.997L421.242 288.985L487.011 271.179L498.326 286.773L525.323 266.734L550.551 289.857L590.339 258.067L598.88 268.515Z" fill="#EE4677"/>
<path id="Fill 18" fill-rule="evenodd" clip-rule="evenodd" d="M206.998 291.521L204.681 293.911L202.219 291.864C203.804 291.74 205.402 291.626 206.998 291.521Z" fill="#00A2D5" fill-opacity="0.3"/>
<path id="Fill 28" fill-rule="evenodd" clip-rule="evenodd" d="M202.219 292.135C168.087 294.916 135.393 298.726 104.571 303.467C103.515 298.474 102.611 293.427 101.86 288.337L154.69 248.508L202.219 292.135Z" fill="#EE4677"/>
<g id="Fill 30" filter="url(#filter0_f_1762_1214)">
<path fill-rule="evenodd" clip-rule="evenodd" d="M450.171 352.953C450.171 357.572 408.448 361.316 356.98 361.316C305.511 361.316 263.789 357.572 263.789 352.953C263.789 348.335 305.511 344.59 356.98 344.59C408.448 344.59 450.171 348.335 450.171 352.953Z" fill="#EE4677"/>
</g>
<path id="Fill 32" fill-rule="evenodd" clip-rule="evenodd" d="M594.098 451.619C584.898 451.619 577.371 444.092 577.371 434.893C577.371 425.693 584.898 418.166 594.098 418.166C603.297 418.166 610.824 425.693 610.824 434.893C610.824 444.092 603.297 451.619 594.098 451.619Z" fill="#EE4677" fill-opacity="0.3"/>
<g id="iconamoon:delivery-fast-fill">
<path id="Vector" fill-rule="evenodd" clip-rule="evenodd" d="M285.5 199.499C285.5 197.775 286.185 196.122 287.404 194.903C288.623 193.684 290.276 192.999 292 192.999H363.5C365.224 192.999 366.877 193.684 368.096 194.903C369.315 196.122 370 197.775 370 199.499V231.999H396C400.268 231.999 404.494 232.84 408.437 234.473C412.38 236.106 415.963 238.5 418.981 241.518C421.999 244.536 424.393 248.119 426.026 252.062C427.659 256.005 428.5 260.231 428.5 264.499V290.499C428.501 294.683 427.156 298.757 424.664 302.119C422.172 305.48 418.665 307.951 414.662 309.167C413.469 313.1 411.065 316.555 407.793 319.04C404.52 321.525 400.546 322.913 396.438 323.005C392.33 323.097 388.297 321.889 384.917 319.554C381.536 317.218 378.979 313.874 377.612 309.999H336.395C335.028 313.874 332.471 317.218 329.09 319.554C325.709 321.889 321.677 323.097 317.569 323.005C313.46 322.913 309.486 321.525 306.214 319.04C302.941 316.555 300.537 313.1 299.345 309.167C295.34 307.952 291.832 305.482 289.339 302.12C286.846 298.759 285.5 294.684 285.5 290.499V264.499H324.5C326.224 264.499 327.877 263.814 329.096 262.595C330.315 261.376 331 259.723 331 257.999C331 256.275 330.315 254.622 329.096 253.403C327.877 252.184 326.224 251.499 324.5 251.499H285.5V238.499H311.5C313.224 238.499 314.877 237.814 316.096 236.595C317.315 235.376 318 233.723 318 231.999C318 230.275 317.315 228.622 316.096 227.403C314.877 226.184 313.224 225.499 311.5 225.499H285.5V199.499ZM370 296.999H377.612C378.897 293.362 381.231 290.188 384.321 287.878C387.41 285.568 391.115 284.226 394.967 284.022C398.819 283.818 402.645 284.762 405.961 286.732C409.277 288.703 411.934 291.613 413.596 295.095C414.2 294.492 414.679 293.775 415.006 292.987C415.333 292.198 415.501 291.353 415.5 290.499V264.499C415.5 259.327 413.446 254.367 409.789 250.71C406.132 247.053 401.172 244.999 396 244.999H370V296.999ZM324.5 303.499C324.5 301.775 323.815 300.122 322.596 298.903C321.377 297.684 319.724 296.999 318 296.999C316.276 296.999 314.623 297.684 313.404 298.903C312.185 300.122 311.5 301.775 311.5 303.499C311.5 305.223 312.185 306.876 313.404 308.095C314.623 309.314 316.276 309.999 318 309.999C319.724 309.999 321.377 309.314 322.596 308.095C323.815 306.876 324.5 305.223 324.5 303.499ZM391.405 298.904C390.799 299.506 390.319 300.222 389.992 301.011C389.665 301.799 389.498 302.645 389.5 303.499C389.5 305.003 390.021 306.46 390.975 307.623C391.928 308.786 393.256 309.582 394.731 309.875C396.206 310.169 397.737 309.942 399.063 309.233C400.389 308.525 401.429 307.378 402.005 305.989C402.581 304.6 402.657 303.054 402.22 301.615C401.784 300.175 400.862 298.932 399.612 298.096C398.362 297.261 396.861 296.884 395.364 297.032C393.867 297.179 392.468 297.84 391.405 298.904Z" fill="#EE4677"/>
</g>
</g>
<defs>
<filter id="filter0_f_1762_1214" x="233.789" y="314.59" width="246.382" height="76.7256" filterUnits="userSpaceOnUse" color-interpolation-filters="sRGB">
<feFlood flood-opacity="0" result="BackgroundImageFix"/>
<feBlend mode="normal" in="SourceGraphic" in2="BackgroundImageFix" result="shape"/>
<feGaussianBlur stdDeviation="5" result="effect1_foregroundBlur_1762_1214"/>
</filter>
</defs>
</svg>
