<svg width="648" height="504" viewBox="0 0 648 504" fill="none" xmlns="http://www.w3.org/2000/svg">
<g id="No Chat History">
<path id="Fill 1" fill-rule="evenodd" clip-rule="evenodd" d="M350.691 0C291.71 0 237.5 20.4452 194.695 54.6518H125.514C116.526 54.6518 109.172 62.0298 109.172 71.0473C109.172 80.0649 116.526 87.4429 125.514 87.4429H160.722H171.039C180.027 87.4429 187.381 94.8209 187.381 103.838C187.381 108.342 185.54 112.452 182.577 115.414C179.624 118.387 175.528 120.234 171.039 120.234H149.028H136.874H77.5782C68.5902 120.234 61.2363 127.612 61.2363 136.629C61.2363 145.647 68.5902 153.025 77.5782 153.025H120.028C107.214 183.239 100.116 216.483 100.116 251.398C100.116 264.067 101.053 276.516 102.85 288.682C103.602 293.764 104.506 298.803 105.563 303.787C136.395 299.055 169.1 295.251 203.244 292.475L205.815 294.825L208.234 292.081C249.252 288.878 292.307 287.173 336.713 287.173C431.06 287.173 519.35 294.868 594.838 308.247C597.747 295.59 599.708 282.572 600.634 269.258C601.059 263.356 601.266 257.399 601.266 251.398C601.266 112.55 489.085 0 350.691 0Z" fill="#EE4677" fill-opacity="0.3"/>
<path id="Fill 3" fill-rule="evenodd" clip-rule="evenodd" d="M27.9574 119.476H18.0538C8.94922 119.476 1.5 127.003 1.5 136.202C1.5 145.402 8.94922 152.929 18.0538 152.929H27.9574C37.062 152.929 44.5112 145.402 44.5112 136.202C44.5112 127.003 37.062 119.476 27.9574 119.476Z" fill="#EE4677" fill-opacity="0.3"/>
<g id="Group 7">
<mask id="mask0_1762_1242" style="mask-type:luminance" maskUnits="userSpaceOnUse" x="105" y="287" width="542" height="215">
<path id="Clip 6" fill-rule="evenodd" clip-rule="evenodd" d="M646.499 287.531V501.794H375.861H105.223V287.531H646.499Z" fill="white"/>
</mask>
<g mask="url(#mask0_1762_1242)">
<path id="Fill 5" fill-rule="evenodd" clip-rule="evenodd" d="M646.499 370.371C646.499 379.332 639.147 386.663 630.161 386.663H525.804C521.317 386.663 517.222 388.499 514.271 391.453C511.308 394.397 509.466 398.481 509.466 402.956C509.466 411.916 516.818 419.248 525.804 419.248H545.193C549.679 419.248 553.776 421.083 556.728 424.038C559.69 426.981 561.531 431.065 561.531 435.54C561.531 444.5 554.179 451.832 545.193 451.832H500.612C458.732 483.2 406.691 501.794 350.292 501.794C229.838 501.794 129.24 417.021 105.223 304.041C136.048 299.338 168.745 295.558 202.881 292.799L205.45 295.134L207.869 292.408C248.876 289.226 291.922 287.531 336.318 287.531C430.641 287.531 518.91 295.178 594.38 308.472C590.71 324.308 585.526 339.557 578.991 354.079H630.161C634.659 354.079 638.733 355.915 641.696 358.869C644.658 361.812 646.499 365.896 646.499 370.371Z" fill="#EE4677" fill-opacity="0.3"/>
</g>
</g>
<path id="Fill 8" fill-rule="evenodd" clip-rule="evenodd" d="M598.88 268.515C597.955 282.082 595.997 295.349 593.092 308.247C517.703 294.613 429.531 286.773 335.309 286.773C290.962 286.773 247.964 288.509 207 291.773L235.408 258.858L279.6 287.696L339.422 286.778L391.382 287.997L421.242 288.985L487.011 271.179L498.326 286.773L525.323 266.734L550.551 289.857L590.339 258.067L598.88 268.515Z" fill="#EE4677"/>
<path id="Fill 18" fill-rule="evenodd" clip-rule="evenodd" d="M206.998 291.521L204.681 293.911L202.219 291.864C203.804 291.74 205.402 291.626 206.998 291.521Z" fill="#00A2D5" fill-opacity="0.3"/>
<path id="Fill 28" fill-rule="evenodd" clip-rule="evenodd" d="M202.219 292.135C168.087 294.916 135.392 298.726 104.571 303.467C103.515 298.474 102.611 293.427 101.859 288.337L154.69 248.508L202.219 292.135Z" fill="#EE4677"/>
<g id="Fill 30" filter="url(#filter0_f_1762_1242)">
<path fill-rule="evenodd" clip-rule="evenodd" d="M450.171 352.953C450.171 357.572 408.448 361.316 356.98 361.316C305.511 361.316 263.789 357.572 263.789 352.953C263.789 348.335 305.511 344.59 356.98 344.59C408.448 344.59 450.171 348.335 450.171 352.953Z" fill="#EE4677"/>
</g>
<path id="Fill 32" fill-rule="evenodd" clip-rule="evenodd" d="M594.098 451.619C584.898 451.619 577.371 444.092 577.371 434.893C577.371 425.693 584.898 418.166 594.098 418.166C603.297 418.166 610.824 425.693 610.824 434.893C610.824 444.092 603.297 451.619 594.098 451.619Z" fill="#EE4677" fill-opacity="0.3"/>
<g id="Frame 1000004931">
<g id="Group 1000004539">
<path id="Vector 111" d="M298.5 220.5H390" stroke="#EE4677" stroke-width="3"/>
<path id="Vector 112" d="M381 204L393.863 219.435C394.861 220.633 395.359 221.231 395.263 221.893C395.167 222.555 394.519 222.987 393.222 223.852L378 234" stroke="#EE4677" stroke-width="3"/>
</g>
<g id="Group 1000004540">
<path id="Vector 111_2" d="M391.5 313.5H300" stroke="#EE4677" stroke-width="3"/>
<path id="Vector 112_2" d="M309 297L296.137 312.435C295.139 313.633 294.641 314.231 294.737 314.893C294.833 315.555 295.481 315.987 296.778 316.852L312 327" stroke="#EE4677" stroke-width="3"/>
</g>
<path id="Vector" d="M333.273 237H366L362.727 243.667H352.058C353.629 245.6 354.807 247.867 355.495 250.333H366L362.727 257H356.182C355.775 261.155 354.002 265.049 351.151 268.05C348.3 271.051 344.537 272.983 340.473 273.533V273.667H338.182L357.818 297H349.636L330 273.667V267H338.182C343.942 267 348.72 262.667 349.505 257H330L333.273 250.333H348.524C346.691 246.4 342.764 243.667 338.182 243.667H330L333.273 237Z" fill="#EE4677"/>
</g>
</g>
<defs>
<filter id="filter0_f_1762_1242" x="233.789" y="314.59" width="246.382" height="76.7256" filterUnits="userSpaceOnUse" color-interpolation-filters="sRGB">
<feFlood flood-opacity="0" result="BackgroundImageFix"/>
<feBlend mode="normal" in="SourceGraphic" in2="BackgroundImageFix" result="shape"/>
<feGaussianBlur stdDeviation="5" result="effect1_foregroundBlur_1762_1242"/>
</filter>
</defs>
</svg>
