<svg width="13" height="13" viewBox="0 0 13 13" fill="none" xmlns="http://www.w3.org/2000/svg">
<g clip-path="url(#clip0_1762_1687)">
<mask id="mask0_1762_1687" style="mask-type:alpha" maskUnits="userSpaceOnUse" x="-1" y="-12" width="25" height="25">
<rect x="-0.347656" y="-11.1475" width="24" height="24" fill="#D9D9D9"/>
</mask>
<g mask="url(#mask0_1762_1687)">
<path d="M6.31169 8.84453C7.20544 8.12231 7.88026 7.42717 8.33616 6.75911C8.79207 6.09106 9.02002 5.46363 9.02002 4.87682C9.02002 4.37127 8.92748 3.94019 8.74241 3.58359C8.55735 3.227 8.32939 2.93811 8.05856 2.71693C7.78773 2.49575 7.49433 2.3355 7.17835 2.2362C6.86238 2.13689 6.57349 2.08724 6.31169 2.08724C6.04988 2.08724 5.76099 2.13689 5.44502 2.2362C5.12905 2.3355 4.83564 2.49575 4.56481 2.71693C4.29398 2.93811 4.06603 3.227 3.88096 3.58359C3.69589 3.94019 3.60335 4.37127 3.60335 4.87682C3.60335 5.46363 3.8313 6.09106 4.28721 6.75911C4.74311 7.42717 5.41794 8.12231 6.31169 8.84453ZM6.31169 10.2122C5.03877 9.27335 4.0886 8.36154 3.46117 7.47682C2.83373 6.5921 2.52002 5.72543 2.52002 4.87682C2.52002 4.23585 2.63512 3.67387 2.86533 3.19089C3.09554 2.7079 3.3912 2.30391 3.75231 1.97891C4.11342 1.65391 4.51967 1.41016 4.97106 1.24766C5.42245 1.08516 5.86932 1.00391 6.31169 1.00391C6.75405 1.00391 7.20092 1.08516 7.65231 1.24766C8.1037 1.41016 8.50995 1.65391 8.87106 1.97891C9.23217 2.30391 9.52783 2.7079 9.75804 3.19089C9.98825 3.67387 10.1034 4.23585 10.1034 4.87682C10.1034 5.72543 9.78964 6.5921 9.16221 7.47682C8.53478 8.36154 7.5846 9.27335 6.31169 10.2122ZM6.31169 5.87891C6.6096 5.87891 6.86464 5.77283 7.07679 5.56068C7.28894 5.34852 7.39502 5.09349 7.39502 4.79557C7.39502 4.49766 7.28894 4.24262 7.07679 4.03047C6.86464 3.81832 6.6096 3.71224 6.31169 3.71224C6.01377 3.71224 5.75873 3.81832 5.54658 4.03047C5.33443 4.24262 5.22835 4.49766 5.22835 4.79557C5.22835 5.09349 5.33443 5.34852 5.54658 5.56068C5.75873 5.77283 6.01377 5.87891 6.31169 5.87891ZM2.52002 11.8372V10.7539H10.1034V11.8372H2.52002Z" fill="#030401"/>
</g>
</g>
<defs>
<clipPath id="clip0_1762_1687">
<rect width="13" height="13" fill="white" transform="matrix(1 0 0 -1 0 13)"/>
</clipPath>
</defs>
</svg>
