<svg width="180" height="43" viewBox="0 0 180 43" fill="none" xmlns="http://www.w3.org/2000/svg">
<path d="M11.4334 31.4665L22.809 19.3967L12.4271 8.1748H18.255L25.5923 16.3479H25.9691L33.4429 8.1748H38.8588L28.5381 19.1615L39.9585 31.4665H34.1635L25.7289 22.1778H25.3521L16.8493 31.4665H11.4334Z" fill="#EE4677"/>
<path d="M48.5627 31.4662V8.17457H65.5002C66.8747 8.13817 68.2336 8.47058 69.4326 9.13652C70.5204 9.76004 71.4115 10.6705 72.0063 11.7661C72.6289 12.9478 72.9407 14.2654 72.9128 15.5976C72.9383 16.9407 72.6268 18.2691 72.0063 19.464C71.4194 20.575 70.5197 21.494 69.4161 22.11C68.1952 22.769 66.8199 23.0969 65.4296 23.0603H52.9872V31.4662H48.5627ZM52.9872 19.3942H64.2663C65.6164 19.3942 66.6454 19.0549 67.3534 18.3763C68.0613 17.6978 68.4153 16.7816 68.4153 15.6279C68.4361 14.9319 68.2738 14.2425 67.9444 13.6271C67.6204 13.0583 67.127 12.6021 66.5316 12.3205C65.8242 11.9932 65.0493 11.8337 64.2687 11.8547H52.9896L52.9872 19.3942Z" fill="black"/>
<path d="M113.569 31.4665V8.1748H117.787L131.679 21.7725C131.953 22.0217 132.28 22.3431 132.657 22.7391C133.033 23.135 133.422 23.5357 133.822 23.9433C134.222 24.3509 134.559 24.7119 134.832 25.0287H135.108C135.084 24.5768 135.062 24.0116 135.04 23.333C135.018 22.6545 135.006 22.0776 135.004 21.6025V8.1748H139.25V31.4665H135.169L121.248 17.7244C120.678 17.1592 120.084 16.5482 119.465 15.8913L117.991 14.3308H117.756C117.78 14.6708 117.797 15.2027 117.808 15.9263C117.82 16.6507 117.824 17.4286 117.824 18.2554V31.4665H113.569Z" fill="black"/>
<path d="M148.094 31.4665V29.3982L164.963 11.8665H149.156V8.1748H172.437V10.2082L155.5 27.7747H172.642V31.4665H148.094Z" fill="black"/>
<path d="M93.4106 8.1748H88.3692L76.4731 31.4665H81.0319L83.5608 26.4518L85.3528 22.8486L88.4728 16.5598C88.6298 16.2492 88.8354 15.8199 89.0897 15.2718C89.3417 14.7291 89.603 14.1584 89.8785 13.5575L90.5991 11.9807H90.8722C91.0147 12.2091 91.1406 12.4473 91.249 12.6934C91.4327 13.0785 91.6328 13.5195 91.8494 14.0164C92.0661 14.5125 92.2827 14.9946 92.5017 15.4581L92.9985 16.5249L96.1185 22.8486L97.9011 26.4448L100.439 31.4665H105.307L93.4106 8.1748Z" fill="black"/>
</svg>
