<svg width="32" height="32" viewBox="0 0 32 32" fill="none" xmlns="http://www.w3.org/2000/svg">
<g clip-path="url(#clip0_1483_509)">
<path d="M25.3333 18.6663V7.99967C25.3333 6.53301 24.1333 5.33301 22.6667 5.33301H4.00001C2.53334 5.33301 1.33334 6.53301 1.33334 7.99967V18.6663C1.33334 20.133 2.53334 21.333 4.00001 21.333H22.6667C24.1333 21.333 25.3333 20.133 25.3333 18.6663ZM22.6667 18.6663H4.00001V7.99967H22.6667V18.6663ZM13.3333 9.33301C11.12 9.33301 9.33334 11.1197 9.33334 13.333C9.33334 15.5463 11.12 17.333 13.3333 17.333C15.5467 17.333 17.3333 15.5463 17.3333 13.333C17.3333 11.1197 15.5467 9.33301 13.3333 9.33301ZM30.6667 9.33301V23.9997C30.6667 25.4663 29.4667 26.6663 28 26.6663H5.33334V23.9997H28V9.33301H30.6667Z" fill="#030401"/>
</g>
<defs>
<clipPath id="clip0_1483_509">
<rect width="32" height="32" fill="white" transform="matrix(1 0 0 -1 0 32)"/>
</clipPath>
</defs>
</svg>
