<svg width="32" height="32" viewBox="0 0 32 32" fill="none" xmlns="http://www.w3.org/2000/svg">
<g clip-path="url(#clip0_1482_4143)">
<path d="M23.5267 8.46634C21.5934 6.53301 18.94 5.33301 15.9934 5.33301C10.1 5.33301 5.34003 10.1063 5.34003 15.9997C5.34003 21.893 10.1 26.6663 15.9934 26.6663C20.9667 26.6663 25.1134 23.2663 26.3 18.6663H23.5267C22.4334 21.773 19.4734 23.9997 15.9934 23.9997C11.58 23.9997 7.99336 20.413 7.99336 15.9997C7.99336 11.5863 11.58 7.99967 15.9934 7.99967C18.2067 7.99967 20.18 8.91967 21.62 10.373L17.3267 14.6663H26.66V5.33301L23.5267 8.46634Z" fill="#030401"/>
</g>
<defs>
<clipPath id="clip0_1482_4143">
<rect width="32" height="32" fill="white" transform="matrix(1 0 0 -1 0 32)"/>
</clipPath>
</defs>
</svg>
