<svg width="25" height="24" viewBox="0 0 25 24" fill="none" xmlns="http://www.w3.org/2000/svg">
<g clip-path="url(#clip0_1482_1722)">
<path d="M13.0227 10.9C10.7527 10.31 10.0227 9.7 10.0227 8.75C10.0227 7.66 11.0327 6.9 12.7227 6.9C14.5027 6.9 15.1627 7.75 15.2227 9H17.4327C17.3627 7.28 16.3127 5.7 14.2227 5.19V3H11.2227V5.16C9.28272 5.58 7.72272 6.84 7.72272 8.77C7.72272 11.08 9.63272 12.23 12.4227 12.9C14.9227 13.5 15.4227 14.38 15.4227 15.31C15.4227 16 14.9327 17.1 12.7227 17.1C10.6627 17.1 9.85272 16.18 9.74272 15H7.54272C7.66272 17.19 9.30272 18.42 11.2227 18.83V21H14.2227V18.85C16.1727 18.48 17.7227 17.35 17.7227 15.3C17.7227 12.46 15.2927 11.49 13.0227 10.9Z" fill="#030401"/>
</g>
<defs>
<clipPath id="clip0_1482_1722">
<rect width="24" height="24" fill="white" transform="matrix(1 0 0 -1 0.63269 24)"/>
</clipPath>
</defs>
</svg>
