<svg width="25" height="24" viewBox="0 0 25 24" fill="none" xmlns="http://www.w3.org/2000/svg">
<g clip-path="url(#clip0_1482_1680)">
<path fill-rule="evenodd" clip-rule="evenodd" d="M16.9996 1.81738C16.5241 1.81722 16.0544 1.92601 15.6235 2.1361C15.1927 2.34619 14.8112 2.65245 14.5061 3.03328C14.2009 3.4141 13.9795 3.86022 13.8574 4.34015C13.7353 4.82009 13.7156 5.32215 13.7996 5.81092L9.06958 9.26976C9.04593 9.28684 9.02323 9.30532 9.00158 9.32511C8.52172 8.93336 7.9461 8.69032 7.34037 8.6237C6.73463 8.55709 6.12316 8.66957 5.57568 8.94834C5.02821 9.22711 4.56676 9.66093 4.24396 10.2003C3.92116 10.7398 3.75 11.363 3.75 11.9991C3.75 12.6352 3.92116 13.2585 4.24396 13.7979C4.56676 14.3373 5.02821 14.7711 5.57568 15.0499C6.12316 15.3287 6.73463 15.4412 7.34037 15.3745C7.9461 15.3079 8.52172 15.0649 9.00158 14.6731C9.0232 14.6933 9.0459 14.7121 9.06958 14.7295L13.7996 18.1884C13.6592 19.0058 13.8106 19.8487 14.2253 20.5574C14.6399 21.266 15.289 21.7914 16.0496 22.0339C16.8102 22.2764 17.6295 22.2192 18.3524 21.8732C19.0754 21.5272 19.6518 20.9164 19.9725 20.1565C20.2932 19.3965 20.336 18.5401 20.0927 17.7494C19.8494 16.9587 19.337 16.2886 18.6524 15.866C17.9679 15.4433 17.1587 15.2975 16.3781 15.456C15.5974 15.6146 14.8996 16.0665 14.4166 16.7263L9.93758 13.4523C10.1376 13.0116 10.2496 12.5197 10.2496 11.9996C10.2496 11.4796 10.1376 10.9866 9.93758 10.547L14.4176 7.27194C14.7532 7.73069 15.1953 8.09246 15.702 8.32305C16.2088 8.55364 16.7635 8.64542 17.3137 8.58973C17.8639 8.53403 18.3915 8.33269 18.8464 8.00475C19.3013 7.67681 19.6686 7.2331 19.9136 6.71559C20.1586 6.19808 20.2731 5.62386 20.2464 5.04724C20.2196 4.47062 20.0525 3.91066 19.7608 3.4203C19.469 2.92994 19.0624 2.52539 18.5792 2.24491C18.096 1.96442 17.5524 1.81728 16.9996 1.81738ZM15.2496 5.21147C15.2496 4.72677 15.434 4.26191 15.7621 3.91917C16.0903 3.57643 16.5355 3.38389 16.9996 3.38389C17.4637 3.38389 17.9088 3.57643 18.237 3.91917C18.5652 4.26191 18.7496 4.72677 18.7496 5.21147C18.7496 5.69618 18.5652 6.16103 18.237 6.50377C17.9088 6.84651 17.4637 7.03906 16.9996 7.03906C16.5355 7.03906 16.0903 6.84651 15.7621 6.50377C15.434 6.16103 15.2496 5.69618 15.2496 5.21147ZM6.99958 10.1721C6.53546 10.1721 6.09034 10.3646 5.76215 10.7073C5.43396 11.0501 5.24958 11.5149 5.24958 11.9996C5.24958 12.4844 5.43396 12.9492 5.76215 13.2919C6.09034 13.6347 6.53546 13.8272 6.99958 13.8272C7.46371 13.8272 7.90883 13.6347 8.23702 13.2919C8.56521 12.9492 8.74958 12.4844 8.74958 11.9996C8.74958 11.5149 8.56521 11.0501 8.23702 10.7073C7.90883 10.3646 7.46371 10.1721 6.99958 10.1721ZM16.9996 16.9602C16.5355 16.9602 16.0903 17.1528 15.7621 17.4955C15.434 17.8383 15.2496 18.3031 15.2496 18.7878C15.2496 19.2725 15.434 19.7374 15.7621 20.0801C16.0903 20.4229 16.5355 20.6154 16.9996 20.6154C17.4637 20.6154 17.9088 20.4229 18.237 20.0801C18.5652 19.7374 18.7496 19.2725 18.7496 18.7878C18.7496 18.3031 18.5652 17.8383 18.237 17.4955C17.9088 17.1528 17.4637 16.9602 16.9996 16.9602Z" fill="#030401"/>
</g>
<defs>
<clipPath id="clip0_1482_1680">
<rect width="24" height="24" fill="white" transform="matrix(1 0 0 -1 0.5 24)"/>
</clipPath>
</defs>
</svg>
