<svg width="32" height="32" viewBox="0 0 32 32" fill="none" xmlns="http://www.w3.org/2000/svg">
<g clip-path="url(#clip0_1483_515)">
<path d="M28 16H20H21.3333C22.3942 16 23.4116 16.4214 24.1618 17.1716C24.9119 17.9217 25.3333 18.9391 25.3333 20C25.3333 21.0609 24.9119 22.0783 24.1618 22.8284C23.4116 23.5786 22.3942 24 21.3333 24H20L24 28M20 20H28M9.33333 6.66667C9.33333 7.37391 9.05238 8.05219 8.55229 8.55229C8.05219 9.05238 7.37391 9.33333 6.66667 9.33333C5.95942 9.33333 5.28115 9.05238 4.78105 8.55229C4.28095 8.05219 4 7.37391 4 6.66667C4 5.95942 4.28095 5.28115 4.78105 4.78105C5.28115 4.28095 5.95942 4 6.66667 4C7.37391 4 8.05219 4.28095 8.55229 4.78105C9.05238 5.28115 9.33333 5.95942 9.33333 6.66667ZM9.33333 6.66667H20M9.33333 6.66667V17.3333C9.33333 18.3942 9.75476 19.4116 10.5049 20.1618C11.2551 20.9119 12.2725 21.3333 13.3333 21.3333H14.6667M20 6.66667C20 7.37391 20.281 8.05219 20.781 8.55229C21.2811 9.05238 21.9594 9.33333 22.6667 9.33333C23.3739 9.33333 24.0522 9.05238 24.5523 8.55229C25.0524 8.05219 25.3333 7.37391 25.3333 6.66667C25.3333 5.95942 25.0524 5.28115 24.5523 4.78105C24.0522 4.28095 23.3739 4 22.6667 4C21.9594 4 21.2811 4.28095 20.781 4.78105C20.281 5.28115 20 5.95942 20 6.66667Z" stroke="#030401" stroke-width="2.5" stroke-linecap="round" stroke-linejoin="round"/>
</g>
<defs>
<clipPath id="clip0_1483_515">
<rect width="32" height="32" fill="white" transform="matrix(1 0 0 -1 0 32)"/>
</clipPath>
</defs>
</svg>
