<svg width="32" height="32" viewBox="0 0 32 32" fill="none" xmlns="http://www.w3.org/2000/svg">
<g clip-path="url(#clip0_1482_4161)">
<path d="M16 2.66699C23.364 2.66699 29.3333 8.63633 29.3333 16.0003C29.3333 23.3643 23.364 29.3337 16 29.3337C13.7306 29.337 11.4982 28.7586 9.51597 27.6537L9.1093 27.4163L5.06664 28.6057C4.84664 28.6705 4.61373 28.6781 4.38999 28.6276C4.16625 28.5772 3.95909 28.4705 3.78815 28.3176C3.61722 28.1647 3.48816 27.9707 3.41323 27.7539C3.33829 27.5371 3.31996 27.3048 3.35997 27.079L3.39464 26.9337L4.58397 22.891C3.32658 20.8127 2.66341 18.4294 2.66664 16.0003C2.66664 8.63633 8.63597 2.66699 16 2.66699ZM16 5.33366C14.0901 5.33331 12.2152 5.84573 10.5711 6.81741C8.92691 7.78909 7.57378 9.18438 6.65299 10.8576C5.7322 12.5308 5.27752 14.4205 5.33645 16.3294C5.39537 18.2383 5.96574 20.0964 6.98797 21.7097C7.25197 22.1257 7.3653 22.6377 7.27597 23.1457L7.22397 23.363L6.63597 25.3643L8.6373 24.7763C9.21464 24.6057 9.81464 24.7097 10.2906 25.0123C11.6884 25.8974 13.2729 26.4452 14.9188 26.6124C16.5648 26.7796 18.227 26.5616 19.7742 25.9758C21.3215 25.3899 22.7112 24.4522 23.8335 23.2367C24.9559 22.0212 25.7802 20.5614 26.2411 18.9725C26.7021 17.3836 26.7872 15.7092 26.4896 14.0818C26.1921 12.4544 25.52 10.9185 24.5266 9.5955C23.5332 8.27253 22.2457 7.19877 20.7659 6.4591C19.286 5.71943 17.6544 5.33413 16 5.33366ZM12.136 9.57899C12.2836 9.51507 12.4453 9.49067 12.6052 9.5082C12.7651 9.52574 12.9177 9.5846 13.048 9.67899C13.72 10.1697 14.2533 10.8283 14.712 11.471L15.148 12.103L15.352 12.403C15.4697 12.5751 15.5274 12.7812 15.5164 12.9894C15.5053 13.1976 15.426 13.3964 15.2906 13.555L15.1906 13.6563L13.9586 14.571C13.8993 14.6139 13.8576 14.6769 13.8412 14.7482C13.8248 14.8196 13.8348 14.8945 13.8693 14.959C14.1493 15.4657 14.644 16.2217 15.212 16.7897C15.7813 17.3577 16.572 17.8857 17.1133 18.1963C17.2306 18.263 17.372 18.2417 17.468 18.155L17.5186 18.095L18.32 16.875C18.4671 16.679 18.6843 16.5476 18.9262 16.5083C19.1681 16.4691 19.4158 16.525 19.6173 16.6643L20.3413 17.1697C21.0613 17.683 21.7533 18.235 22.3013 18.935C22.4032 19.0663 22.468 19.2225 22.4889 19.3874C22.5097 19.5523 22.4859 19.7198 22.42 19.8723C21.892 21.1043 20.5546 22.1537 19.1653 22.103L18.9533 22.0897L18.6986 22.0657C18.6506 22.06 18.6026 22.0537 18.5546 22.047L18.2373 21.9937C17.0053 21.7617 15.0306 21.063 12.984 19.0177C10.9386 16.971 10.24 14.9963 10.008 13.7643L9.95464 13.447L9.9213 13.1697L9.90397 12.9363C9.90186 12.903 9.90008 12.8697 9.89864 12.8363C9.84797 11.4443 10.9026 10.107 12.136 9.57899Z" fill="white"/>
</g>
<defs>
<clipPath id="clip0_1482_4161">
<rect width="32" height="32" fill="white"/>
</clipPath>
</defs>
</svg>
