<svg width="90" height="90" viewBox="0 0 90 90" fill="none" xmlns="http://www.w3.org/2000/svg">
<path d="M32.6016 73.2043H32.6839L32.7038 73.1579L32.7022 73.1562L32.6016 73.2043Z" fill="url(#paint0_linear_8556_52824)"/>
<path d="M75.8525 74.0275C75.8587 74.051 75.8628 74.0752 75.8647 74.0995C75.8541 73.9394 75.8419 73.7921 75.8281 73.6367C75.8388 73.7648 75.8464 73.8945 75.8525 74.0275Z" fill="url(#paint1_linear_8556_52824)"/>
<path d="M54.1016 67.5067H54.1839L54.2022 67.4586V67.457L54.1016 67.5067Z" fill="url(#paint2_linear_8556_52824)"/>
<path d="M9.50329 44.2774L12.7586 49.7655C14.4258 52.5776 17.5484 54.2495 21.3253 54.3504L31.3458 54.6226C32.3862 54.6498 33.428 54.7011 34.4669 54.7043C35.003 54.6959 35.5375 54.7698 36.0533 54.9237C36.8374 55.1687 37.4887 55.6267 38.2667 56.3297C39.8211 57.7479 41.1565 59.4108 42.2252 61.2589C42.9458 62.5018 43.5531 63.8133 44.0389 65.176C44.3145 65.95 44.554 66.7358 44.7574 67.5333C44.9252 68.1979 45.3752 69.3541 45.3004 70.0748C45.3172 69.9915 45.3325 69.9146 45.3462 69.8265L45.3599 69.7513C46.2401 64.3577 45.4148 59.1819 42.8872 54.9221L38.883 48.1705C35.2128 41.9858 28.3148 38.3361 19.9845 38.1712L12.8821 38.0319C12.1821 38.019 11.4917 38.2044 10.8836 38.5686C10.2754 38.9328 9.77198 39.4623 9.42622 40.1014C9.08046 40.7405 8.90514 41.4657 8.9187 42.2005C8.93226 42.9354 9.13421 43.6528 9.50329 44.2774Z" fill="#00A2D5"/>
<path d="M34.3785 69.116L39.5298 77.8021C39.712 78.109 39.9692 78.359 40.2746 78.5262C40.5799 78.6934 40.9224 78.7717 41.2664 78.7529C41.6103 78.7341 41.9432 78.6189 42.2304 78.4193C42.5176 78.2197 42.7486 77.943 42.8995 77.618C43.9917 75.2174 44.7996 72.6853 45.3051 70.0785C45.3798 69.3578 44.9298 68.2016 44.762 67.537C44.5586 66.7395 44.3192 65.9537 44.0436 65.1797C43.5578 63.8164 42.9506 62.5044 42.2298 61.261C41.1612 59.4129 39.8258 57.75 38.2714 56.3318C37.4934 55.6288 36.842 55.1708 36.058 54.9258L34.2595 58.9806C32.6624 62.5966 32.7051 66.2991 34.3785 69.116Z" fill="#3D80C2"/>
<path d="M54.9506 80.5911C54.9591 80.6141 54.9687 80.6365 54.9796 80.6584C54.9064 80.5222 54.8377 80.3877 54.7676 80.25C54.8271 80.3637 54.8881 80.4758 54.9506 80.5911Z" fill="url(#paint3_linear_8556_52824)"/>
<path d="M80.6789 71.7454L79.001 62.827C78.1452 58.2582 74.835 54.4292 69.9186 52.3169L56.8762 46.7119C55.5232 46.1306 54.1793 45.5188 52.814 44.9696C52.1041 44.7003 51.4358 44.3226 50.831 43.8486C49.9157 43.1183 49.2781 42.1751 48.5886 40.8443C47.2192 38.1664 46.2543 35.2815 45.7284 32.2927C45.3709 30.2813 45.1952 28.2389 45.2037 26.1929C45.2037 25.0324 45.2627 23.8745 45.3806 22.7194C45.4752 21.7585 45.431 19.997 45.8733 19.0938C45.8108 19.1946 45.7513 19.2939 45.6933 19.3948C45.6925 19.398 45.6925 19.4013 45.6933 19.4044L45.64 19.4973C41.9225 26.1256 40.5481 33.3592 41.8478 40.2822L43.9055 51.2471C45.7925 61.2977 53.1252 69.7051 63.9969 74.282L73.2669 78.1831C77.2986 79.8854 81.5179 76.2165 80.6789 71.7454Z" fill="#EE4677"/>
<path d="M59.779 26.0719L57.1324 11.9585C57.0386 11.4599 56.8193 10.9966 56.4973 10.6171C56.1752 10.2375 55.7622 9.9554 55.3012 9.80011C54.8402 9.64482 54.3479 9.62201 53.8756 9.73404C53.4034 9.84608 52.9683 10.0889 52.6156 10.4372C50.0423 13.0198 47.7805 15.924 45.8809 19.0849C45.4385 19.9913 45.4828 21.748 45.3882 22.7105C45.2753 23.8635 45.2163 25.0213 45.2112 26.184C45.2028 28.2301 45.3784 30.2724 45.736 32.2838C46.2619 35.2726 47.2268 38.1575 48.5961 40.8354C49.2856 42.1662 49.9248 43.1094 50.8385 43.8397L55.1204 39.4502C58.94 35.5395 60.6394 30.6568 59.779 26.0719Z" fill="#D32963"/>
<defs>
<linearGradient id="paint0_linear_8556_52824" x1="34.5512" y1="73.6428" x2="34.7197" y2="73.5644" gradientUnits="userSpaceOnUse">
<stop stop-color="#2B388F"/>
<stop offset="1" stop-color="#008BBC"/>
</linearGradient>
<linearGradient id="paint1_linear_8556_52824" x1="72.9609" y1="73.1109" x2="73.3745" y2="73.4614" gradientUnits="userSpaceOnUse">
<stop stop-color="#3C80C2"/>
<stop offset="1" stop-color="#008BBC"/>
</linearGradient>
<linearGradient id="paint2_linear_8556_52824" x1="57.1737" y1="64.9765" x2="57.2226" y2="65.0426" gradientUnits="userSpaceOnUse">
<stop stop-color="#3C80C2"/>
<stop offset="1" stop-color="#008BBC"/>
</linearGradient>
<linearGradient id="paint3_linear_8556_52824" x1="53.8864" y1="80.1591" x2="53.7363" y2="80.6937" gradientUnits="userSpaceOnUse">
<stop stop-color="#3C80C2"/>
<stop offset="1" stop-color="#008BBC"/>
</linearGradient>
</defs>
</svg>
